<svg width="24" height="19" viewBox="0 0 24 19" fill="none" xmlns="http://www.w3.org/2000/svg">
<path fill-rule="evenodd" clip-rule="evenodd" d="M11 3C11 1.34315 12.3431 0 14 0C15.6569 0 17 1.34315 17 3C17 4.65685 15.6569 6 14 6C12.3431 6 11 4.65685 11 3ZM7 3C5.34315 3 4 4.34315 4 6C4 7.65685 5.34315 9 7 9C8.65685 9 10 7.65685 10 6C10 4.34315 8.65685 3 7 3ZM21 18C20.4477 18 20 17.5523 20 17V8C20 7.44772 20.4477 7 21 7H23C23.5523 7 24 7.44772 24 8V17C24 17.5523 23.5523 18 23 18H21ZM13.5 9.5H15.67C16.6345 8.73829 17.7834 8.24528 19 8.071V17.375C17.1 18.41 14.761 19 12 19C7.678 19 3.849 16.972 1.484 13.851C-0.720396 10.9419 3.43191 10.9785 5.56837 10.9973C5.72403 10.9987 5.86898 11 6 11H8.886C8.31058 11.895 8.00315 12.936 8 14V15H16L16.001 14H9C9 11.5147 11.0147 9.5 13.5 9.5Z" fill="black"/>
</svg>
