<svg width="17" height="405" viewBox="0 0 17 405" fill="none" xmlns="http://www.w3.org/2000/svg">
<path d="M4.2 14.112C3.04267 14.112 2.16067 13.678 1.554 12.81C0.947333 11.942 0.644 10.6773 0.644 9.016C0.644 7.35467 0.947333 6.09 1.554 5.222C2.16067 4.354 3.04267 3.92 4.2 3.92C5.35733 3.92 6.23933 4.354 6.846 5.222C7.45267 6.08067 7.756 7.34067 7.756 9.002C7.756 10.6727 7.45267 11.942 6.846 12.81C6.23933 13.678 5.35733 14.112 4.2 14.112ZM4.2 12.95C4.91867 12.95 5.446 12.6327 5.782 11.998C6.12733 11.354 6.3 10.3553 6.3 9.002C6.3 7.64867 6.132 6.65933 5.796 6.034C5.46 5.40867 4.928 5.096 4.2 5.096C3.48133 5.096 2.94933 5.41333 2.604 6.048C2.268 6.67333 2.1 7.658 2.1 9.002C2.1 10.3553 2.268 11.354 2.604 11.998C2.94933 12.6327 3.48133 12.95 4.2 12.95ZM15.9125 12.81V14H10.0885V12.81H12.2725V5.754L10.2425 7.014V5.684L12.8885 4.032H13.7285V12.81H15.9125Z" fill="black" fill-opacity="0.5"/>
<path d="M4.2 401.112C3.04267 401.112 2.16067 400.678 1.554 399.81C0.947333 398.942 0.644 397.677 0.644 396.016C0.644 394.355 0.947333 393.09 1.554 392.222C2.16067 391.354 3.04267 390.92 4.2 390.92C5.35733 390.92 6.23933 391.354 6.846 392.222C7.45267 393.081 7.756 394.341 7.756 396.002C7.756 397.673 7.45267 398.942 6.846 399.81C6.23933 400.678 5.35733 401.112 4.2 401.112ZM4.2 399.95C4.91867 399.95 5.446 399.633 5.782 398.998C6.12733 398.354 6.3 397.355 6.3 396.002C6.3 394.649 6.132 393.659 5.796 393.034C5.46 392.409 4.928 392.096 4.2 392.096C3.48133 392.096 2.94933 392.413 2.604 393.048C2.268 393.673 2.1 394.658 2.1 396.002C2.1 397.355 2.268 398.354 2.604 398.998C2.94933 399.633 3.48133 399.95 4.2 399.95ZM13.1125 394.686C13.7099 394.686 14.2372 394.821 14.6945 395.092C15.1612 395.353 15.5252 395.727 15.7865 396.212C16.0479 396.688 16.1785 397.239 16.1785 397.864C16.1785 398.489 16.0385 399.049 15.7585 399.544C15.4785 400.029 15.0912 400.412 14.5965 400.692C14.1019 400.972 13.5419 401.112 12.9165 401.112C11.6845 401.112 10.7325 400.692 10.0605 399.852C9.39786 399.012 9.06653 397.808 9.06653 396.24C9.06653 395.129 9.22053 394.177 9.52853 393.384C9.84586 392.581 10.2985 391.97 10.8865 391.55C11.4839 391.13 12.1932 390.92 13.0145 390.92C13.6025 390.92 14.1719 391.023 14.7225 391.228C15.2825 391.433 15.7679 391.732 16.1785 392.124L15.6605 393.188C14.7832 392.46 13.9152 392.096 13.0565 392.096C12.2445 392.096 11.6192 392.455 11.1805 393.174C10.7419 393.883 10.5225 394.896 10.5225 396.212V396.226C10.7372 395.741 11.0732 395.363 11.5305 395.092C11.9972 394.821 12.5245 394.686 13.1125 394.686ZM12.8465 399.936C13.4252 399.936 13.8919 399.749 14.2465 399.376C14.6012 399.003 14.7785 398.508 14.7785 397.892C14.7785 397.285 14.6012 396.795 14.2465 396.422C13.8919 396.049 13.4205 395.862 12.8325 395.862C12.2445 395.862 11.7592 396.053 11.3765 396.436C11.0032 396.809 10.8165 397.295 10.8165 397.892C10.8165 398.499 11.0032 398.993 11.3765 399.376C11.7499 399.749 12.2399 399.936 12.8465 399.936Z" fill="black" fill-opacity="0.5"/>
<path fill-rule="evenodd" clip-rule="evenodd" d="M8 28H9.5V378H8V28Z" fill="white"/>
<path fill-rule="evenodd" clip-rule="evenodd" d="M8 185H9.5V245H8V185Z" fill="black"/>
</svg>
